<svg width="232" height="58" viewBox="0 0 232 58" fill="none" xmlns="http://www.w3.org/2000/svg">
<path d="M143.901 36.124L137.961 52.8329C137.501 54.2645 136.169 55.2302 134.672 55.2174H133.94C132.422 55.2316 131.064 54.2725 130.563 52.8329L124.529 36.124C124.44 35.8511 124.623 35.4834 124.989 35.4834H129.553C129.736 35.4834 129.919 35.6672 130.014 35.8511L134.306 50.2645L138.51 35.8511C138.604 35.6731 138.781 35.4833 138.965 35.4833H143.446C143.812 35.4833 143.995 35.8511 143.901 36.124ZM151.576 35.5782H147.555C147.278 35.5782 147.101 35.7621 147.101 36.035V54.7606C147.101 55.0394 147.284 55.2174 147.561 55.2174H151.576C151.854 55.2174 152.037 55.0334 152.037 54.7606V36.035C152.037 35.7562 151.854 35.5782 151.576 35.5782ZM149.563 27.0369C148.016 27.0369 146.729 28.2351 146.729 29.7002C146.729 31.1712 148.01 32.3634 149.563 32.3634C151.121 32.3634 152.397 31.1712 152.397 29.7061C152.397 28.2351 151.121 27.0369 149.563 27.0369ZM121.972 43.0045V52.655C121.982 53.6771 121.306 54.5779 120.325 54.8496C118.772 55.3123 116.765 55.68 114.657 55.68C108.723 55.68 105.8 53.3786 105.8 49.3452C105.8 43.9298 111.374 42.9214 117.314 42.5536V41.5453C117.314 39.4337 116.032 38.8821 113.747 38.8821C112.472 38.8821 110.913 39.2498 109.638 39.6176C109.455 39.7065 109.178 39.6176 109.083 39.3447L108.079 36.6756C107.902 36.4027 108.079 36.124 108.357 36.035C109.91 35.5782 112.012 35.1156 114.114 35.1156C118.5 35.0207 122.061 36.3019 121.972 43.0045ZM117.314 51.7296L117.308 51.7297V45.6736C113.659 45.8575 110.459 46.2252 110.459 49.1613C110.459 51.0001 111.923 52.0974 114.48 52.0974C115.578 52.0974 116.765 51.9135 117.314 51.7296ZM171.863 43.0045V52.655C171.873 53.6771 171.197 54.5779 170.216 54.8496C168.574 55.3123 166.561 55.68 164.459 55.68C158.519 55.68 155.597 53.3786 155.597 49.3452C155.597 43.9298 161.17 42.9214 167.11 42.5536V41.5453C167.11 39.4337 165.829 38.8821 163.544 38.8821C162.269 38.8821 160.716 39.2498 159.435 39.6176C159.252 39.7065 158.98 39.6176 158.886 39.3447L157.882 36.6756C157.699 36.4027 157.882 36.124 158.153 36.035C159.706 35.5782 161.808 35.1156 163.91 35.1156C168.297 35.0207 171.863 36.3019 171.863 43.0045ZM167.11 45.6736C163.449 45.8575 160.261 46.2252 160.261 49.1613C160.261 51.0001 161.72 52.0974 164.276 52.0974C165.374 52.0974 166.561 51.9135 167.11 51.7296V45.6736ZM208.777 36.4917L189.859 21.0699C189.405 20.7021 188.767 20.892 188.678 21.4376H188.672L185.384 33.5556C185.148 34.3532 185.6 35.192 186.394 35.4291C186.482 35.4555 186.573 35.4737 186.665 35.4834L197.812 36.8594C198.084 36.8594 198.084 37.2272 197.812 37.2272L186.022 38.4194C184.743 38.5396 183.681 39.4613 183.376 40.7149L179.716 54.4878C179.539 55.1284 180.265 55.5851 180.814 55.3123L208.682 37.6898C209.143 37.4111 209.143 36.8594 208.777 36.4917Z" fill="#FF585D"/>
<path d="M57.3046 55.2219H53.1043C52.8328 55.2219 52.65 55.0458 52.65 54.7698V42.2268C52.65 40.3184 51.3698 39.232 49.4525 39.232C48.3869 39.1825 47.3424 39.5395 46.5322 40.2303V54.7698C46.5322 55.0399 46.3493 55.2219 46.0721 55.2219H42.0604C41.7832 55.2219 41.6003 55.0458 41.6003 54.7698V42.0448C41.6003 40.3184 40.3201 39.2262 38.2198 39.2262C37.1285 39.2262 36.2141 39.414 35.4825 39.6842V54.7756C35.4825 55.0399 35.3055 55.2219 35.0283 55.2219H31.0108C30.7334 55.2219 30.5505 55.0458 30.5505 54.7698V37.8697C30.5505 37.1415 31.0108 36.5954 31.6479 36.3194C33.4767 35.6853 35.6654 35.3211 37.9485 35.3211C41.146 35.3211 43.1518 36.3194 44.2492 37.3177C46.1887 36.0104 48.4788 35.3146 50.8211 35.3211C55.116 35.3211 57.7589 37.8697 57.7589 41.7746V54.7698C57.7589 55.0399 57.5819 55.2219 57.3046 55.2219ZM19.2295 55.68L19.2265 55.6798L19.2236 55.68H19.2295ZM21.4123 43.595C19.6837 43.0489 18.4035 42.4089 18.4035 40.9525C18.4035 39.8662 19.4065 38.956 21.1409 38.956C22.3493 39.0207 23.5318 39.3304 24.6157 39.8662C24.8871 39.9543 25.1584 39.8662 25.2528 39.5961C25.5242 38.9619 26.0728 37.7757 26.3442 37.1415C26.533 36.8655 26.4386 36.5954 26.1672 36.5014C24.7042 35.8673 22.7868 35.3211 20.5038 35.3211C15.9376 35.3211 13.2946 37.5937 13.2946 41.0465C13.2946 44.8634 16.4037 46.0438 18.8696 46.9539C20.604 47.5 21.8783 48.1342 21.8783 49.5905C21.8783 50.9529 20.787 51.7691 18.9581 51.7691C17.7723 51.7691 15.9435 51.317 14.852 50.7708C14.5748 50.6827 14.3034 50.7708 14.209 51.0409C13.9377 51.7691 13.3005 53.1373 13.0232 53.8596C12.9347 54.0416 13.1176 54.4057 13.3005 54.4997C14.8513 55.1336 17.0447 55.6793 19.2265 55.6798C24.4336 55.6788 27.1702 53.3127 27.1702 49.5847C27.1702 45.5916 23.9726 44.4994 21.4123 43.595ZM76.9322 43.1312V52.6852C76.9427 53.6955 76.27 54.5867 75.2922 54.8579C73.6462 55.3159 71.6404 55.68 69.5402 55.68C63.6053 55.68 60.6792 53.4015 60.6792 49.4085C60.6792 44.0472 66.2541 43.0489 72.1831 42.6848V41.6866C72.1831 39.5961 70.9089 39.05 68.6257 39.05C67.3515 39.05 65.794 39.414 64.5197 39.7782C64.3368 39.8662 64.0596 39.7782 63.9652 39.508L62.9622 36.8656C62.8737 36.5954 62.9622 36.3194 63.2396 36.2313C64.7911 35.7791 66.8913 35.3211 68.9856 35.3211H68.9915C73.3748 35.2272 76.8437 36.4956 76.9322 43.1312ZM72.1831 45.7736C68.5313 45.9556 65.3397 46.3197 65.3397 49.2265C65.3397 51.0469 66.7969 52.1332 69.3514 52.1332C70.4487 52.1332 71.6404 51.9511 72.1831 51.7691V45.7736ZM90.6308 35.7791H89.0792C84.6959 35.7791 81.227 39.05 81.227 43.413V54.7698C81.227 55.0399 81.404 55.2219 81.6813 55.2219H85.6929C85.9702 55.2219 86.1531 55.0457 86.1531 54.7698V43.9533C86.1531 40.8645 88.2532 39.8662 90.7192 39.5961C90.9965 39.5961 91.1735 39.3201 91.1735 39.1381V36.2313C91.1735 35.9612 90.9021 35.7791 90.6308 35.7791ZM100.117 55.586C101.12 55.586 102.123 55.4099 102.766 55.1338C102.935 55.0468 103.041 54.8716 103.037 54.6817V51.5871C103.037 51.317 102.766 51.0469 102.495 51.1349C102.217 51.2289 101.946 51.2289 101.669 51.2289C100.394 51.2289 99.3856 50.6828 99.3856 49.0445V39.4141H102.583L102.589 39.414C102.86 39.414 103.043 39.232 103.043 38.956V36.2313C103.043 35.9612 102.866 35.7791 102.589 35.7791H99.3915V31.1402C99.3915 30.8701 99.2145 30.688 98.9372 30.688H95.0022C94.7309 30.688 94.548 30.8642 94.548 31.1402V49.4085C94.548 53.4955 96.3768 55.586 100.117 55.586ZM218.354 1.23908L190.509 18.6912C190.055 18.9671 190.055 19.5133 190.42 19.8715L209.316 35.1391C209.776 35.5032 210.414 35.2331 210.508 34.7751L213.794 22.7841C214.03 21.9945 213.578 21.1641 212.785 20.9294C212.696 20.9031 212.606 20.8852 212.514 20.8756L201.376 19.5074C201.104 19.5074 201.104 19.1492 201.376 19.1492L213.151 17.963C214.433 17.8489 215.5 16.9353 215.806 15.6905L219.452 2.06117C219.634 1.427 218.903 0.968972 218.354 1.23908Z" fill="white"/>
</svg>
